<svg version="1.1" id="Layer_1" xmlns="http://www.w3.org/2000/svg" xmlns:xlink="http://www.w3.org/1999/xlink" x="0px" y="0px"
	 viewBox="0 0 147.5 131.9" style="enable-background:new 0 0 147.5 131.9;" xml:space="preserve">
<style type="text/css">
	.st0{fill:#F15A29;}
	.st1{enable-background:new    ;}
	.st2{fill:#FFFFFF;}
	.st3{fill:none;stroke:#FFFFFF;stroke-width:1.7137;stroke-miterlimit:10;}
</style>
		<g>
			<g>
				<polygon class="st0" points="115.1,131.9 0,70.4 32.5,9.9 147.5,71.4 111,90.8 				"/>
				<g class="st1">
					<path class="st2" d="M44.1,60l-4.6-2.5L46.2,45l1.1-2l1.3-2.2c-1.2,0.4-2,0.6-2.4,0.6l-3.6,0.7L42,38.2l10-1.8l3.8,2L44.1,60z"
						/>
					<path class="st2" d="M70.9,60.5c-2,3.8-4.1,6.2-6.4,7.4c-2.2,1.2-4.6,1-7.2-0.3c-2.5-1.3-3.9-3.3-4.1-5.8
						c-0.3-2.6,0.6-5.7,2.6-9.3c2-3.8,4.2-6.3,6.4-7.5c2.2-1.1,4.6-1,7.2,0.3c2.5,1.3,3.9,3.3,4.1,5.9S72.8,56.8,70.9,60.5z
						 M60.3,54.8c-1.4,2.7-2.2,4.7-2.4,6.1c-0.2,1.4,0.3,2.4,1.4,3c1.1,0.6,2.1,0.4,3.2-0.5c1.1-0.9,2.4-2.7,3.8-5.3
						c1.4-2.7,2.2-4.7,2.3-6.1c0.1-1.4-0.3-2.4-1.4-3c-1.1-0.6-2.2-0.4-3.2,0.5C63,50.3,61.7,52.1,60.3,54.8z"/>
					<path class="st2" d="M99.2,61.7L75.5,76.9L72,75l23.6-15.2L99.2,61.7z M85.5,62.7c-1.2,2.3-2.6,3.7-4.1,4.4
						c-1.5,0.7-3.1,0.5-4.8-0.4c-1.6-0.9-2.6-2.1-2.8-3.8s0.2-3.6,1.4-5.8c2.4-4.5,5.3-5.9,8.7-4c1.7,0.9,2.6,2.2,2.9,3.8
						C87.1,58.6,86.7,60.5,85.5,62.7z M78.9,59.2c-0.7,1.3-1.1,2.2-1.2,3c-0.1,0.7,0.1,1.2,0.6,1.5c0.9,0.5,2.1-0.5,3.4-3
						c1.3-2.5,1.5-4,0.6-4.5c-0.5-0.3-1-0.2-1.6,0.3C80.2,57.1,79.6,57.9,78.9,59.2z M96,79.5c-1.2,2.3-2.6,3.7-4.1,4.4
						s-3.1,0.5-4.8-0.4c-1.6-0.9-2.6-2.1-2.8-3.8c-0.3-1.6,0.2-3.6,1.4-5.8c2.4-4.5,5.3-5.9,8.7-4c1.7,0.9,2.6,2.2,2.9,3.8
						C97.6,75.4,97.2,77.3,96,79.5z M89.5,76c-0.7,1.3-1.1,2.2-1.2,3s0.1,1.2,0.6,1.5c0.9,0.5,2.1-0.5,3.4-3c1.3-2.5,1.5-4,0.6-4.5
						c-0.5-0.3-1-0.2-1.6,0.3C90.7,73.9,90.1,74.7,89.5,76z"/>
				</g>
				<g class="st1">
					<path class="st2" d="M29.7,68.9c-0.8-0.4-1.3-0.9-1.7-1.4l0.5-1c0.2,0.3,0.5,0.5,0.7,0.8c0.3,0.3,0.6,0.5,1,0.7
						c0.8,0.4,1.5,0.5,2.2,0.3c0.7-0.2,1.2-0.7,1.7-1.5l-3.8-2l0.5-1l3.8,2c0.3-0.8,0.4-1.5,0.2-2.1c-0.2-0.6-0.7-1.1-1.4-1.4
						c-0.5-0.3-1.1-0.4-1.9-0.6l0.2-1.1c0.3,0,0.7,0.1,1.1,0.2c0.4,0.1,0.8,0.3,1.2,0.5c1.2,0.6,1.9,1.4,2.1,2.4
						c0.2,1,0,2.1-0.6,3.4c-0.7,1.2-1.5,2-2.5,2.3C32,69.7,30.9,69.5,29.7,68.9z"/>
					<path class="st2" d="M43.9,66.7l1.2,0.7l-5.2,1.9l1.4,5.7L40,74.3l-1.4-5.6l-2,3.8l-1.1-0.6l4-7.5l1.1,0.6l-1.9,3.6L43.9,66.7z
						"/>
					<path class="st2" d="M51.2,75.4c-0.7,1.2-1.5,2-2.4,2.4c-1,0.4-2,0.2-3.1-0.3c-0.7-0.4-1.2-0.8-1.5-1.4s-0.5-1.3-0.5-2
						c0-0.7,0.3-1.5,0.7-2.3c0.7-1.2,1.5-2,2.4-2.4c1-0.4,2-0.2,3.1,0.3c1,0.6,1.7,1.4,1.9,2.4C52,73.1,51.8,74.2,51.2,75.4z
						 M45.5,72.4c-0.5,1-0.7,1.8-0.6,2.5c0.1,0.7,0.5,1.3,1.3,1.7c0.7,0.4,1.4,0.4,2.1,0.2c0.7-0.3,1.2-0.9,1.7-1.9
						c0.5-0.9,0.7-1.8,0.6-2.5c-0.1-0.7-0.6-1.2-1.3-1.7c-0.7-0.4-1.4-0.5-2.1-0.2C46.6,70.8,46,71.4,45.5,72.4z"/>
					<path class="st2" d="M56.3,73.4l-1.7,3.1l4.2,2.2l1.7-3.1l1.1,0.6l-4,7.5l-1.1-0.6l1.8-3.4l-4.2-2.2l-1.8,3.4l-1.1-0.6l4-7.5
						L56.3,73.4z"/>
					<path class="st2" d="M68.5,84.7c-0.7,1.2-1.5,2-2.5,2.4c-1,0.4-2,0.2-3.1-0.3c-0.7-0.4-1.2-0.8-1.5-1.4c-0.3-0.6-0.5-1.3-0.5-2
						c0-0.7,0.3-1.5,0.7-2.3c0.7-1.2,1.5-2,2.4-2.4c1-0.4,2-0.2,3.1,0.3c1,0.6,1.7,1.4,1.9,2.4S69.1,83.5,68.5,84.7z M62.8,81.6
						c-0.5,1-0.7,1.8-0.6,2.5s0.5,1.3,1.3,1.7c0.7,0.4,1.4,0.5,2.1,0.2c0.7-0.3,1.2-0.9,1.7-1.9c0.5-1,0.7-1.8,0.6-2.5
						c-0.1-0.7-0.6-1.2-1.3-1.7c-0.7-0.4-1.4-0.5-2.1-0.2C63.9,80.1,63.3,80.7,62.8,81.6z"/>
					<path class="st2" d="M72.9,90.5l0.6-0.5l0.7-0.6l4.7-3.8l1.4,0.8l-4,7.5l-1-0.5l3.3-6.2l-0.3,0.3l-1,0.8l-4.5,3.7l-0.9-0.5
						l0.6-5.8c0.1-0.7,0.2-1.3,0.3-1.7L69.5,90l-1-0.5l4-7.5l1.4,0.7l-0.6,5.8C73.2,89.2,73.1,89.8,72.9,90.5z"/>
					<path class="st2" d="M83.8,88.1l-2.5,4.7l-0.7,1.2l-0.2,0.4l7.5-4.2l1.4,0.8l-4,7.5l-1.1-0.6l2.4-4.6l0.5-0.9l0.5-0.9l-7.4,4.2
						L78.7,95l4-7.5L83.8,88.1z"/>
					<path class="st2" d="M88,99.9l-1.3-0.7l3.8-2c-0.5-0.4-0.8-0.9-0.9-1.5s0-1.1,0.3-1.6c0.4-0.7,0.9-1.1,1.6-1.2s1.4,0,2.2,0.4
						l3.3,1.8l-4,7.5l-1.1-0.6l1.6-3l-1.9-1L88,99.9z M90.9,94.8c-0.5,0.9-0.1,1.6,1.2,2.3l1.8,1l1.4-2.5l-2.1-1.1
						C92.1,93.8,91.4,93.9,90.9,94.8z"/>
				</g>
			</g>

				<ellipse transform="matrix(0.4561 -0.8899 0.8899 0.4561 -27.3376 46.4562)" class="st3" cx="24.3" cy="45.6" rx="3.7" ry="3.7"/>
			<path class="st3" d="M11.8,0.3c-3.1,10-3.5,11-4.1,21.4c-0.2,3.4-0.2,7,1.1,10.2c2.5,6.6,9.3,10.4,15.6,13.7"/>
		</g>
</svg>
