<svg version="1.1" id="Layer_1" xmlns="http://www.w3.org/2000/svg" xmlns:xlink="http://www.w3.org/1999/xlink" x="0px" y="0px"
	 viewBox="0 0 82 72" style="enable-background:new 0 0 82 72;" xml:space="preserve">
<style type="text/css">
	.st0{fill:none;stroke:#4667FF;stroke-width:4.792;stroke-linecap:round;stroke-linejoin:round;stroke-miterlimit:10;}
	.st1{fill:#FFFFFF;}
</style>
<g>
	<polyline class="st0" points="41,52 41,68.7 2.6,68.7 2.6,19.1 30.2,19.1 	"/>

		<rect x="24.7" y="34.7" transform="matrix(0.7071 -0.7071 0.7071 0.7071 -16.2631 34.9123)" class="st0" width="18.7" height="4.8"/>
	<line class="st0" x1="27.4" y1="43.7" x2="21" y2="50.1"/>

		<rect x="39.3" y="21.2" transform="matrix(0.7071 -0.7071 0.7071 0.7071 -6.2876 39.0678)" class="st0" width="9.4" height="11.8"/>
	<rect x="44" y="11.6" transform="matrix(0.7071 -0.7071 0.7071 0.7071 4.8214 43.5747)" class="st0" width="22" height="8.8"/>
	<path class="st0" d="M65.6,5.9c1.3-1.7,3.5-2.8,5.3-2.6s3.1,1.5,3.4,3.2c0.6,3.1-1.4,6.7-1.8,10.1c-0.6,4.8,2.4,8.9,7,9.4"/>
	<path class="st1" d="M16.6,34.7h-5.5c-0.6,0-1.1-0.5-1.1-1.1v-5.5c0-0.6,0.5-1.1,1.1-1.1h5.5c0.6,0,1.1,0.5,1.1,1.1v5.5
		C17.7,34.3,17.2,34.7,16.6,34.7z"/>
	<path class="st1" d="M32.8,61.5h-5.5c-0.6,0-1.1-0.5-1.1-1.1v-5.5c0-0.6,0.5-1.1,1.1-1.1h5.5c0.6,0,1.1,0.5,1.1,1.1v5.5
		C33.9,61,33.4,61.5,32.8,61.5z"/>
</g>
</svg>
