<?xml version="1.0" encoding="utf-8"?>
<!-- Generator: Adobe Illustrator 23.0.4, SVG Export Plug-In . SVG Version: 6.00 Build 0)  -->
<svg version="1.1" id="Layer_1" xmlns="http://www.w3.org/2000/svg" xmlns:xlink="http://www.w3.org/1999/xlink" x="0px" y="0px"
	 viewBox="0 0 232.8 64.1" style="enable-background:new 0 0 232.8 64.1;" xml:space="preserve">
<style type="text/css">
	.st0{enable-background:new    ;}
	.st1{fill:#4F5252;}
</style>
<g id="Layer_3_7_">
	<g>
		<g>
			<g class="st0">
				<path class="st1" d="M80,17.8l-0.4-1.7h-0.1c-0.6,0.7-1.2,1.2-1.7,1.5c-0.6,0.3-1.3,0.4-2.2,0.4c-1.2,0-2.1-0.3-2.7-0.9
					c-0.7-0.6-1-1.5-1-2.6c0-2.4,1.9-3.6,5.7-3.7l2-0.1v-0.7c0-0.9-0.2-1.6-0.6-2c-0.4-0.4-1-0.7-1.9-0.7c-1,0-2.1,0.3-3.3,0.9
					l-0.5-1.4c0.6-0.3,1.2-0.6,1.9-0.7c0.7-0.2,1.4-0.3,2.1-0.3c1.4,0,2.4,0.3,3.1,0.9s1,1.6,1,3v8H80z M76,16.6
					c1.1,0,2-0.3,2.6-0.9c0.6-0.6,0.9-1.5,0.9-2.5V12l-1.8,0.1c-1.4,0-2.4,0.3-3.1,0.7c-0.6,0.4-0.9,1-0.9,1.8
					c0,0.6,0.2,1.1,0.6,1.5C74.8,16.4,75.3,16.6,76,16.6z"/>
				<path class="st1" d="M84.4,10.8c0-2.6,0.4-4.6,1.1-6c0.8-1.4,2-2.3,3.6-2.7c2-0.4,3.8-0.8,5.4-1.1l0.3,1.6
					c-2.5,0.4-4.2,0.7-5.3,1c-1,0.2-1.8,0.8-2.3,1.7c-0.5,0.9-0.8,2.1-0.9,3.6h0.1c0.4-0.6,1-1.1,1.7-1.4c0.7-0.3,1.4-0.5,2.2-0.5
					c1.4,0,2.6,0.5,3.4,1.4c0.8,0.9,1.2,2.2,1.2,3.9c0,1.8-0.5,3.3-1.4,4.3S91.3,18,89.7,18c-1.6,0-2.9-0.6-3.9-1.9
					C84.8,14.9,84.4,13.1,84.4,10.8z M89.8,16.5c2.2,0,3.3-1.4,3.3-4.2c0-2.6-1-4-3-4c-0.5,0-1.1,0.1-1.6,0.3s-1,0.5-1.4,0.9
					c-0.4,0.4-0.7,0.8-1,1.1c0,1.9,0.3,3.3,0.9,4.3C87.7,16,88.6,16.5,89.8,16.5z"/>
				<path class="st1" d="M108.2,11.9c0,1.9-0.5,3.4-1.4,4.5s-2.3,1.6-4,1.6c-1,0-2-0.2-2.8-0.7c-0.8-0.5-1.4-1.2-1.9-2.1
					c-0.4-0.9-0.7-2-0.7-3.2c0-1.9,0.5-3.4,1.4-4.5c1-1.1,2.3-1.6,4-1.6c1.6,0,2.9,0.5,3.9,1.6S108.2,10.1,108.2,11.9z M99.2,11.9
					c0,1.5,0.3,2.6,0.9,3.4c0.6,0.8,1.5,1.2,2.6,1.2s2-0.4,2.6-1.2c0.6-0.8,0.9-1.9,0.9-3.4c0-1.5-0.3-2.6-0.9-3.4s-1.5-1.2-2.7-1.2
					c-1.2,0-2,0.4-2.6,1.1C99.5,9.3,99.2,10.4,99.2,11.9z"/>
				<path class="st1" d="M113,6.1V11h6.6V6.1h1.8v11.7h-1.8v-5.3H113v5.3h-1.8V6.1H113z"/>
				<path class="st1" d="M130.1,18c-1.7,0-3.1-0.5-4.1-1.6c-1-1.1-1.5-2.5-1.5-4.4c0-1.9,0.5-3.4,1.4-4.5c0.9-1.1,2.2-1.7,3.7-1.7
					c1.5,0,2.6,0.5,3.5,1.4c0.9,1,1.3,2.2,1.3,3.8v1.1h-8.1c0,1.4,0.4,2.4,1,3.1c0.7,0.7,1.6,1.1,2.8,1.1c1.3,0,2.5-0.3,3.7-0.8v1.6
					c-0.6,0.3-1.2,0.5-1.8,0.6C131.6,18,130.9,18,130.1,18z M129.6,7.4c-0.9,0-1.7,0.3-2.3,0.9c-0.6,0.6-0.9,1.5-1,2.5h6.1
					c0-1.1-0.2-2-0.7-2.6C131.3,7.7,130.6,7.4,129.6,7.4z"/>
				<path class="st1" d="M143.5,16.1l0.3-1l0.5-1.3l3.2-7.7h2.3v11.7h-1.6V8.1L148,8.7l-0.6,1.6l-3,7.4h-1.5l-3-7.4
					c-0.4-1-0.6-1.7-0.8-2.2v9.7h-1.6V6.1h2.2l3.1,7.4C143,14.3,143.3,15.2,143.5,16.1z"/>
				<path class="st1" d="M158.5,18c-1.7,0-3.1-0.5-4.1-1.6c-1-1.1-1.5-2.5-1.5-4.4c0-1.9,0.5-3.4,1.4-4.5s2.2-1.7,3.7-1.7
					c1.5,0,2.6,0.5,3.5,1.4c0.9,1,1.3,2.2,1.3,3.8v1.1h-8.1c0,1.4,0.4,2.4,1,3.1c0.7,0.7,1.6,1.1,2.8,1.1c1.3,0,2.5-0.3,3.7-0.8v1.6
					c-0.6,0.3-1.2,0.5-1.8,0.6C160,18,159.3,18,158.5,18z M158,7.4c-0.9,0-1.7,0.3-2.3,0.9s-0.9,1.5-1,2.5h6.1c0-1.1-0.2-2-0.7-2.6
					C159.6,7.7,158.9,7.4,158,7.4z"/>
				<path class="st1" d="M167.6,6.1V11h6.6V6.1h1.8v11.7h-1.8v-5.3h-6.6v5.3h-1.8V6.1H167.6z"/>
				<path class="st1" d="M187.6,7.6h-3.8v10.2H182V7.6h-3.8V6.1h9.3V7.6z"/>
				<path class="st1" d="M197.4,6.1V11h6.6V6.1h1.8v11.7H204v-5.3h-6.6v5.3h-1.8V6.1H197.4z"/>
				<path class="st1" d="M216.7,17.8l-0.4-1.7h-0.1c-0.6,0.7-1.2,1.2-1.7,1.5c-0.6,0.3-1.3,0.4-2.2,0.4c-1.2,0-2.1-0.3-2.7-0.9
					s-1-1.5-1-2.6c0-2.4,1.9-3.6,5.7-3.7l2-0.1v-0.7c0-0.9-0.2-1.6-0.6-2c-0.4-0.4-1-0.7-1.9-0.7c-1,0-2.1,0.3-3.3,0.9l-0.5-1.4
					c0.6-0.3,1.2-0.6,1.9-0.7c0.7-0.2,1.4-0.3,2.1-0.3c1.4,0,2.4,0.3,3.1,0.9s1,1.6,1,3v8H216.7z M212.7,16.6c1.1,0,2-0.3,2.6-0.9
					c0.6-0.6,0.9-1.5,0.9-2.5V12l-1.8,0.1c-1.4,0-2.4,0.3-3.1,0.7c-0.6,0.4-0.9,1-0.9,1.8c0,0.6,0.2,1.1,0.6,1.5
					C211.4,16.4,212,16.6,212.7,16.6z"/>
			</g>
		</g>
		<g>
			<g class="st0">
				<path class="st1" d="M97.7,56.4h-5.6V39.1l-0.3,1.2c-0.7,2.8-1.3,4.9-1.9,6.3L86,56.4h-4.3l-3.9-9.9C77.2,45,76.6,43,76,40.4
					l-0.4-1.3v17.3H70v-22h8.3l3.8,9.4c0.4,1,0.8,2.2,1.1,3.5c0.3,1.3,0.6,2.4,0.7,3.4c0.4-2,0.8-3.4,1-4.2c0.2-0.9,0.5-1.6,0.8-2.4
					c0.3-0.7,1.6-3.9,3.9-9.6h8.2V56.4z"/>
				<path class="st1" d="M113.9,56.8c-3.5,0-6.3-1-8.3-2.9c-2-2-3-4.7-3-8.3c0-3.7,0.9-6.5,2.8-8.5c1.8-2,4.4-3,7.6-3
					c3.1,0,5.5,0.9,7.2,2.7s2.6,4.2,2.6,7.3v2.9h-14.2c0.1,1.7,0.6,3,1.5,4c0.9,1,2.3,1.4,4,1.4c1.3,0,2.6-0.1,3.8-0.4
					c1.2-0.3,2.4-0.7,3.7-1.3v4.6c-1,0.5-2.2,0.9-3.4,1.2C117.1,56.7,115.6,56.8,113.9,56.8z M113.1,38.3c-1.3,0-2.3,0.4-3,1.2
					s-1.1,1.9-1.2,3.4h8.4c0-1.5-0.4-2.6-1.2-3.4S114.4,38.3,113.1,38.3z"/>
				<path class="st1" d="M136.7,56.8c-6.8,0-10.3-3.8-10.3-11.3c0-3.7,0.9-6.6,2.8-8.6c1.9-2,4.5-3,8-3c2.5,0,4.8,0.5,6.8,1.5
					l-1.8,4.6c-0.9-0.4-1.8-0.7-2.6-0.9s-1.6-0.4-2.4-0.4c-3.1,0-4.7,2.2-4.7,6.6c0,4.3,1.6,6.4,4.7,6.4c1.2,0,2.2-0.2,3.2-0.5
					c1-0.3,2-0.8,2.9-1.4v5.1c-1,0.6-1.9,1-2.9,1.3C139.4,56.7,138.2,56.8,136.7,56.8z"/>
				<path class="st1" d="M151.8,56.4h-6.5l5.9-8.7c-1.4-0.6-2.5-1.4-3.2-2.6c-0.7-1.1-1.1-2.4-1.1-3.9c0-2.1,0.8-3.8,2.4-5
					c1.6-1.2,3.8-1.8,6.5-1.8H166v22h-6v-8.2h-3.3L151.8,56.4z M152.8,41.3c0,0.9,0.4,1.6,1.1,2.2s1.7,0.8,2.8,0.8h3.3v-5.5h-4.1
					c-1,0-1.8,0.2-2.3,0.7C153.1,39.8,152.8,40.5,152.8,41.3z"/>
				<path class="st1" d="M193.1,52h3.2v12.3h-5.4v-7.9h-18.6v-22h6v17.5h8.8V34.4h6V52z"/>
			</g>
		</g>
		<g>
			<g class="st0">
				<path class="st1" d="M41.3,54.2H30V23.3l0.1-5.1l0.2-5.6c-1.9,1.9-3.2,3.1-3.9,3.7l-6.1,4.9l-5.4-6.8L32,0.8h9.3V54.2z"/>
			</g>
		</g>
	</g>
</g>
</svg>
