<?xml version="1.0" encoding="utf-8"?>
<!-- Generator: Adobe Illustrator 23.0.4, SVG Export Plug-In . SVG Version: 6.00 Build 0)  -->
<svg version="1.1" id="Layer_1" xmlns="http://www.w3.org/2000/svg" xmlns:xlink="http://www.w3.org/1999/xlink" x="0px" y="0px"
	 viewBox="0 0 203.2 64.1" style="enable-background:new 0 0 203.2 64.1;" xml:space="preserve">
<style type="text/css">
	.st0{enable-background:new    ;}
	.st1{fill:#4F5252;}
</style>
<g id="Layer_3_1_">
	<g>
		<g>
			<g class="st0">
				<path class="st1" d="M65.2,17.8l-0.4-1.7h-0.1c-0.6,0.7-1.2,1.2-1.7,1.5c-0.6,0.3-1.3,0.4-2.2,0.4c-1.2,0-2.1-0.3-2.7-0.9
					c-0.7-0.6-1-1.5-1-2.6c0-2.4,1.9-3.6,5.7-3.7l2-0.1v-0.7c0-0.9-0.2-1.6-0.6-2c-0.4-0.4-1-0.7-1.9-0.7c-1,0-2.1,0.3-3.3,0.9
					l-0.5-1.4c0.6-0.3,1.2-0.6,1.9-0.7C61,6,61.7,5.9,62.4,5.9c1.4,0,2.4,0.3,3.1,0.9s1,1.6,1,3v8H65.2z M61.2,16.6
					c1.1,0,2-0.3,2.6-0.9c0.6-0.6,0.9-1.5,0.9-2.5V12L63,12.1c-1.4,0-2.4,0.3-3.1,0.7c-0.6,0.4-0.9,1-0.9,1.8c0,0.6,0.2,1.1,0.6,1.5
					C60,16.4,60.5,16.6,61.2,16.6z"/>
				<path class="st1" d="M69.6,10.8c0-2.6,0.4-4.6,1.1-6c0.8-1.4,2-2.3,3.6-2.7c2-0.4,3.8-0.8,5.4-1.1L80,2.6
					c-2.5,0.4-4.2,0.7-5.3,1c-1,0.2-1.8,0.8-2.3,1.7c-0.5,0.9-0.8,2.1-0.9,3.6h0.1c0.4-0.6,1-1.1,1.7-1.4c0.7-0.3,1.4-0.5,2.2-0.5
					c1.4,0,2.6,0.5,3.4,1.4c0.8,0.9,1.2,2.2,1.2,3.9c0,1.8-0.5,3.3-1.4,4.3S76.5,18,74.9,18c-1.6,0-2.9-0.6-3.9-1.9
					C70.1,14.9,69.6,13.1,69.6,10.8z M75,16.5c2.2,0,3.3-1.4,3.3-4.2c0-2.6-1-4-3-4c-0.5,0-1.1,0.1-1.6,0.3s-1,0.5-1.4,0.9
					c-0.4,0.4-0.7,0.8-1,1.1c0,1.9,0.3,3.3,0.9,4.3C72.9,16,73.8,16.5,75,16.5z"/>
				<path class="st1" d="M93.4,11.9c0,1.9-0.5,3.4-1.4,4.5s-2.3,1.6-4,1.6c-1,0-2-0.2-2.8-0.7c-0.8-0.5-1.4-1.2-1.9-2.1
					c-0.4-0.9-0.7-2-0.7-3.2c0-1.9,0.5-3.4,1.4-4.5c1-1.1,2.3-1.6,4-1.6c1.6,0,2.9,0.5,3.9,1.6S93.4,10.1,93.4,11.9z M84.4,11.9
					c0,1.5,0.3,2.6,0.9,3.4c0.6,0.8,1.5,1.2,2.6,1.2s2-0.4,2.6-1.2c0.6-0.8,0.9-1.9,0.9-3.4c0-1.5-0.3-2.6-0.9-3.4S89.1,7.4,88,7.4
					c-1.2,0-2,0.4-2.6,1.1C84.7,9.3,84.4,10.4,84.4,11.9z"/>
				<path class="st1" d="M98.3,6.1V11h6.6V6.1h1.8v11.7h-1.8v-5.3h-6.6v5.3h-1.8V6.1H98.3z"/>
				<path class="st1" d="M115.3,18c-1.7,0-3.1-0.5-4.1-1.6c-1-1.1-1.5-2.5-1.5-4.4c0-1.9,0.5-3.4,1.4-4.5c0.9-1.1,2.2-1.7,3.7-1.7
					c1.5,0,2.6,0.5,3.5,1.4c0.9,1,1.3,2.2,1.3,3.8v1.1h-8.1c0,1.4,0.4,2.4,1,3.1c0.7,0.7,1.6,1.1,2.8,1.1c1.3,0,2.5-0.3,3.7-0.8v1.6
					c-0.6,0.3-1.2,0.5-1.8,0.6C116.8,18,116.1,18,115.3,18z M114.8,7.4c-0.9,0-1.7,0.3-2.3,0.9c-0.6,0.6-0.9,1.5-1,2.5h6.1
					c0-1.1-0.2-2-0.7-2.6C116.5,7.7,115.8,7.4,114.8,7.4z"/>
				<path class="st1" d="M128.7,16.1l0.3-1l0.5-1.3l3.2-7.7h2.3v11.7h-1.6V8.1l-0.2,0.6l-0.6,1.6l-3,7.4H128l-3-7.4
					c-0.4-1-0.6-1.7-0.8-2.2v9.7h-1.6V6.1h2.2l3.1,7.4C128.2,14.3,128.5,15.2,128.7,16.1z"/>
				<path class="st1" d="M143.7,18c-1.7,0-3.1-0.5-4.1-1.6c-1-1.1-1.5-2.5-1.5-4.4c0-1.9,0.5-3.4,1.4-4.5s2.2-1.7,3.7-1.7
					c1.5,0,2.6,0.5,3.5,1.4c0.9,1,1.3,2.2,1.3,3.8v1.1h-8.1c0,1.4,0.4,2.4,1,3.1c0.7,0.7,1.6,1.1,2.8,1.1c1.3,0,2.5-0.3,3.7-0.8v1.6
					c-0.6,0.3-1.2,0.5-1.8,0.6C145.2,18,144.5,18,143.7,18z M143.2,7.4c-0.9,0-1.7,0.3-2.3,0.9s-0.9,1.5-1,2.5h6.1
					c0-1.1-0.2-2-0.7-2.6C144.9,7.7,144.1,7.4,143.2,7.4z"/>
				<path class="st1" d="M152.8,6.1V11h6.6V6.1h1.8v11.7h-1.8v-5.3h-6.6v5.3H151V6.1H152.8z"/>
				<path class="st1" d="M172.8,7.6H169v10.2h-1.8V7.6h-3.8V6.1h9.3V7.6z"/>
				<path class="st1" d="M182.6,6.1V11h6.6V6.1h1.8v11.7h-1.8v-5.3h-6.6v5.3h-1.8V6.1H182.6z"/>
				<path class="st1" d="M201.9,17.8l-0.4-1.7h-0.1c-0.6,0.7-1.2,1.2-1.7,1.5c-0.6,0.3-1.3,0.4-2.2,0.4c-1.2,0-2.1-0.3-2.7-0.9
					s-1-1.5-1-2.6c0-2.4,1.9-3.6,5.7-3.7l2-0.1v-0.7c0-0.9-0.2-1.6-0.6-2c-0.4-0.4-1-0.7-1.9-0.7c-1,0-2.1,0.3-3.3,0.9l-0.5-1.4
					c0.6-0.3,1.2-0.6,1.9-0.7c0.7-0.2,1.4-0.3,2.1-0.3c1.4,0,2.4,0.3,3.1,0.9s1,1.6,1,3v8H201.9z M197.9,16.6c1.1,0,2-0.3,2.6-0.9
					c0.6-0.6,0.9-1.5,0.9-2.5V12l-1.8,0.1c-1.4,0-2.4,0.3-3.1,0.7c-0.6,0.4-0.9,1-0.9,1.8c0,0.6,0.2,1.1,0.6,1.5
					C196.7,16.4,197.2,16.6,197.9,16.6z"/>
			</g>
		</g>
		<g>
			<g class="st0">
				<path class="st1" d="M82.9,56.4h-5.6V39.1L77,40.3c-0.7,2.8-1.3,4.9-1.9,6.3l-3.9,9.8h-4.3L63,46.5c-0.6-1.4-1.2-3.5-1.8-6.1
					l-0.4-1.3v17.3h-5.6v-22h8.3l3.8,9.4c0.4,1,0.8,2.2,1.1,3.5c0.3,1.3,0.6,2.4,0.7,3.4c0.4-2,0.8-3.4,1-4.2
					c0.2-0.9,0.5-1.6,0.8-2.4c0.3-0.7,1.6-3.9,3.9-9.6h8.2V56.4z"/>
				<path class="st1" d="M99.1,56.8c-3.5,0-6.3-1-8.3-2.9c-2-2-3-4.7-3-8.3c0-3.7,0.9-6.5,2.8-8.5c1.8-2,4.4-3,7.6-3
					c3.1,0,5.5,0.9,7.2,2.7s2.6,4.2,2.6,7.3v2.9H93.9c0.1,1.7,0.6,3,1.5,4c0.9,1,2.3,1.4,4,1.4c1.3,0,2.6-0.1,3.8-0.4
					c1.2-0.3,2.4-0.7,3.7-1.3v4.6c-1,0.5-2.2,0.9-3.4,1.2C102.3,56.7,100.9,56.8,99.1,56.8z M98.3,38.3c-1.3,0-2.3,0.4-3,1.2
					s-1.1,1.9-1.2,3.4h8.4c0-1.5-0.4-2.6-1.2-3.4S99.6,38.3,98.3,38.3z"/>
				<path class="st1" d="M121.9,56.8c-6.8,0-10.3-3.8-10.3-11.3c0-3.7,0.9-6.6,2.8-8.6c1.9-2,4.5-3,8-3c2.5,0,4.8,0.5,6.8,1.5
					l-1.8,4.6c-0.9-0.4-1.8-0.7-2.6-0.9s-1.6-0.4-2.4-0.4c-3.1,0-4.7,2.2-4.7,6.6c0,4.3,1.6,6.4,4.7,6.4c1.2,0,2.2-0.2,3.2-0.5
					c1-0.3,2-0.8,2.9-1.4v5.1c-1,0.6-1.9,1-2.9,1.3C124.6,56.7,123.4,56.8,121.9,56.8z"/>
				<path class="st1" d="M137,56.4h-6.5l5.9-8.7c-1.4-0.6-2.5-1.4-3.2-2.6c-0.7-1.1-1.1-2.4-1.1-3.9c0-2.1,0.8-3.8,2.4-5
					c1.6-1.2,3.8-1.8,6.5-1.8h10.2v22h-6v-8.2H142L137,56.4z M138,41.3c0,0.9,0.4,1.6,1.1,2.2s1.7,0.8,2.8,0.8h3.3v-5.5h-4.1
					c-1,0-1.8,0.2-2.3,0.7C138.3,39.8,138,40.5,138,41.3z"/>
				<path class="st1" d="M178.3,52h3.2v12.3h-5.4v-7.9h-18.6v-22h6v17.5h8.8V34.4h6V52z"/>
			</g>
		</g>
		<g>
			<g class="st0">
				<path class="st1" d="M26.5,54.2H15.2V23.3l0.1-5.1l0.2-5.6c-1.9,1.9-3.2,3.1-3.9,3.7l-6.1,4.9L0,14.5L17.2,0.8h9.3V54.2z"/>
			</g>
		</g>
	</g>
</g>
</svg>
