<?xml version="1.0" encoding="utf-8"?>
<!-- Generator: Adobe Illustrator 23.0.4, SVG Export Plug-In . SVG Version: 6.00 Build 0)  -->
<svg version="1.1" id="Layer_1" xmlns="http://www.w3.org/2000/svg" xmlns:xlink="http://www.w3.org/1999/xlink" x="0px" y="0px"
	 viewBox="0 0 232.8 64.1" style="enable-background:new 0 0 232.8 64.1;" xml:space="preserve">
<style type="text/css">
	.st0{enable-background:new    ;}
	.st1{fill:#4F5252;}
</style>
<g id="Layer_3_6_">
	<g>
		<g class="st0">
			<path class="st1" d="M79.6,17.8l-0.4-1.7h-0.1c-0.6,0.7-1.2,1.2-1.7,1.5c-0.6,0.3-1.3,0.4-2.2,0.4c-1.2,0-2.1-0.3-2.7-0.9
				c-0.7-0.6-1-1.5-1-2.6c0-2.4,1.9-3.6,5.7-3.7l2-0.1v-0.7c0-0.9-0.2-1.6-0.6-2c-0.4-0.4-1-0.7-1.9-0.7c-1,0-2.1,0.3-3.3,0.9
				l-0.5-1.4c0.6-0.3,1.2-0.6,1.9-0.7c0.7-0.2,1.4-0.3,2.1-0.3c1.4,0,2.4,0.3,3.1,0.9s1,1.6,1,3v8H79.6z M75.6,16.6
				c1.1,0,2-0.3,2.6-0.9c0.6-0.6,0.9-1.5,0.9-2.5v-1.1l-1.8,0.1c-1.4,0-2.4,0.3-3.1,0.7c-0.6,0.4-0.9,1-0.9,1.8
				c0,0.6,0.2,1.1,0.6,1.5C74.3,16.4,74.9,16.6,75.6,16.6z"/>
			<path class="st1" d="M83.9,10.8c0-2.6,0.4-4.6,1.1-6c0.8-1.4,2-2.3,3.6-2.7c2-0.4,3.8-0.8,5.4-1.1l0.3,1.6
				c-2.5,0.4-4.2,0.7-5.3,1c-1,0.2-1.8,0.8-2.3,1.7c-0.5,0.9-0.8,2.1-0.9,3.6H86c0.4-0.6,1-1.1,1.7-1.4c0.7-0.3,1.4-0.5,2.2-0.5
				c1.4,0,2.6,0.5,3.4,1.4c0.8,0.9,1.2,2.2,1.2,3.9c0,1.8-0.5,3.3-1.4,4.3S90.9,18,89.2,18c-1.6,0-2.9-0.6-3.9-1.9
				C84.4,14.9,83.9,13.1,83.9,10.8z M89.4,16.5c2.2,0,3.3-1.4,3.3-4.2c0-2.6-1-4-3-4c-0.5,0-1.1,0.1-1.6,0.3s-1,0.5-1.4,0.9
				c-0.4,0.4-0.7,0.8-1,1.1c0,1.9,0.3,3.3,0.9,4.3C87.2,16.1,88.2,16.5,89.4,16.5z"/>
			<path class="st1" d="M107.7,11.9c0,1.9-0.5,3.4-1.4,4.5s-2.3,1.6-4,1.6c-1,0-2-0.2-2.8-0.7c-0.8-0.5-1.4-1.2-1.9-2.1
				c-0.4-0.9-0.7-2-0.7-3.2c0-1.9,0.5-3.4,1.4-4.5c1-1.1,2.3-1.6,4-1.6c1.6,0,2.9,0.5,3.9,1.6S107.7,10.1,107.7,11.9z M98.8,11.9
				c0,1.5,0.3,2.6,0.9,3.4c0.6,0.8,1.5,1.2,2.6,1.2s2-0.4,2.6-1.2s0.9-1.9,0.9-3.4c0-1.5-0.3-2.6-0.9-3.4s-1.5-1.2-2.7-1.2
				c-1.2,0-2,0.4-2.6,1.1C99.1,9.3,98.8,10.4,98.8,11.9z"/>
			<path class="st1" d="M112.6,6.1V11h6.6V6.1h1.8v11.7h-1.8v-5.3h-6.6v5.3h-1.8V6.1H112.6z"/>
			<path class="st1" d="M129.7,18c-1.7,0-3.1-0.5-4.1-1.6c-1-1.1-1.5-2.5-1.5-4.4c0-1.9,0.5-3.4,1.4-4.5c0.9-1.1,2.2-1.7,3.7-1.7
				c1.5,0,2.6,0.5,3.5,1.4c0.9,1,1.3,2.2,1.3,3.8v1.1h-8.1c0,1.4,0.4,2.4,1,3.1c0.7,0.7,1.6,1.1,2.8,1.1c1.3,0,2.5-0.3,3.7-0.8v1.6
				c-0.6,0.3-1.2,0.5-1.8,0.6C131.1,18,130.5,18,129.7,18z M129.2,7.4c-0.9,0-1.7,0.3-2.3,0.9c-0.6,0.6-0.9,1.5-1,2.5h6.1
				c0-1.1-0.2-2-0.7-2.6C130.8,7.7,130.1,7.4,129.2,7.4z"/>
			<path class="st1" d="M143.1,16.1l0.3-1l0.5-1.3l3.2-7.7h2.3v11.7h-1.6V8.1l-0.2,0.6l-0.6,1.6l-3,7.4h-1.5l-3-7.4
				c-0.4-1-0.6-1.7-0.8-2.2v9.7H137V6.1h2.2l3.1,7.4C142.6,14.3,142.8,15.2,143.1,16.1z"/>
			<path class="st1" d="M158.1,18c-1.7,0-3.1-0.5-4.1-1.6c-1-1.1-1.5-2.5-1.5-4.4c0-1.9,0.5-3.4,1.4-4.5c0.9-1.1,2.2-1.7,3.7-1.7
				c1.5,0,2.6,0.5,3.5,1.4c0.9,1,1.3,2.2,1.3,3.8v1.1h-8.1c0,1.4,0.4,2.4,1,3.1c0.7,0.7,1.6,1.1,2.8,1.1c1.3,0,2.5-0.3,3.7-0.8v1.6
				c-0.6,0.3-1.2,0.5-1.8,0.6C159.5,18,158.8,18,158.1,18z M157.6,7.4c-0.9,0-1.7,0.3-2.3,0.9c-0.6,0.6-0.9,1.5-1,2.5h6.1
				c0-1.1-0.2-2-0.7-2.6C159.2,7.7,158.5,7.4,157.6,7.4z"/>
			<path class="st1" d="M167.2,6.1V11h6.6V6.1h1.8v11.7h-1.8v-5.3h-6.6v5.3h-1.8V6.1H167.2z"/>
			<path class="st1" d="M187.2,7.6h-3.8v10.2h-1.8V7.6h-3.8V6.1h9.3V7.6z"/>
			<path class="st1" d="M197,6.1V11h6.6V6.1h1.8v11.7h-1.8v-5.3H197v5.3h-1.8V6.1H197z"/>
			<path class="st1" d="M216.3,17.8l-0.4-1.7h-0.1c-0.6,0.7-1.2,1.2-1.7,1.5c-0.6,0.3-1.3,0.4-2.2,0.4c-1.2,0-2.1-0.3-2.7-0.9
				c-0.7-0.6-1-1.5-1-2.6c0-2.4,1.9-3.6,5.7-3.7l2-0.1v-0.7c0-0.9-0.2-1.6-0.6-2s-1-0.7-1.9-0.7c-1,0-2.1,0.3-3.3,0.9l-0.5-1.4
				c0.6-0.3,1.2-0.6,1.9-0.7c0.7-0.2,1.4-0.3,2.1-0.3c1.4,0,2.4,0.3,3.1,0.9s1,1.6,1,3v8H216.3z M212.3,16.6c1.1,0,2-0.3,2.6-0.9
				c0.6-0.6,0.9-1.5,0.9-2.5v-1.1l-1.8,0.1c-1.4,0-2.4,0.3-3.1,0.7s-0.9,1-0.9,1.8c0,0.6,0.2,1.1,0.6,1.5
				C211,16.4,211.6,16.6,212.3,16.6z"/>
		</g>
	</g>
	<g>
		<g class="st0">
			<path class="st1" d="M99.6,56.4H94V39.1l-0.3,1.2c-0.7,2.8-1.3,4.9-1.9,6.3l-3.9,9.8h-4.3l-3.9-9.9c-0.6-1.4-1.2-3.5-1.8-6.1
				l-0.4-1.3v17.3h-5.6v-22h8.3l3.8,9.4c0.4,1,0.8,2.2,1.1,3.5c0.3,1.3,0.6,2.4,0.7,3.4c0.4-2,0.8-3.4,1-4.2
				c0.2-0.9,0.5-1.6,0.8-2.4c0.3-0.7,1.6-3.9,3.9-9.6h8.2V56.4z"/>
			<path class="st1" d="M115.8,56.8c-3.5,0-6.3-1-8.3-2.9c-2-2-3-4.7-3-8.3c0-3.7,0.9-6.5,2.8-8.5c1.8-2,4.4-3,7.6-3
				c3.1,0,5.5,0.9,7.2,2.7s2.6,4.2,2.6,7.3v2.9h-14.2c0.1,1.7,0.6,3,1.5,4c0.9,1,2.3,1.4,4,1.4c1.3,0,2.6-0.1,3.8-0.4
				c1.2-0.3,2.4-0.7,3.7-1.3v4.6c-1,0.5-2.2,0.9-3.4,1.2C119,56.7,117.5,56.8,115.8,56.8z M115,38.3c-1.3,0-2.3,0.4-3,1.2
				s-1.1,1.9-1.2,3.4h8.4c0-1.5-0.4-2.6-1.2-3.4S116.3,38.3,115,38.3z"/>
			<path class="st1" d="M138.6,56.8c-6.8,0-10.3-3.8-10.3-11.3c0-3.7,0.9-6.6,2.8-8.6c1.9-2,4.5-3,8-3c2.5,0,4.8,0.5,6.8,1.5
				l-1.8,4.6c-0.9-0.4-1.8-0.7-2.6-0.9c-0.8-0.2-1.6-0.4-2.4-0.4c-3.1,0-4.7,2.2-4.7,6.6c0,4.3,1.6,6.4,4.7,6.4
				c1.2,0,2.2-0.2,3.2-0.5s2-0.8,2.9-1.4v5.1c-1,0.6-1.9,1-2.9,1.3C141.3,56.7,140.1,56.8,138.6,56.8z"/>
			<path class="st1" d="M153.7,56.4h-6.5l5.9-8.7c-1.4-0.6-2.5-1.4-3.2-2.6c-0.7-1.1-1.1-2.4-1.1-3.9c0-2.1,0.8-3.8,2.4-5
				c1.6-1.2,3.8-1.8,6.5-1.8h10.2v22h-6v-8.2h-3.3L153.7,56.4z M154.7,41.3c0,0.9,0.4,1.6,1.1,2.2s1.7,0.8,2.8,0.8h3.3v-5.5h-4.1
				c-1,0-1.8,0.2-2.3,0.7C155,39.9,154.7,40.5,154.7,41.3z"/>
			<path class="st1" d="M195,52h3.2v12.3h-5.4v-7.9h-18.6v-22h6v17.5h8.8V34.4h6V52z"/>
			<path class="st1" d="M215.8,56.4l-1.2-3h-0.2c-1,1.3-2,2.2-3.1,2.6s-2.5,0.7-4.2,0.7c-2.1,0-3.8-0.6-5-1.8
				c-1.2-1.2-1.8-2.9-1.8-5.1c0-2.3,0.8-4.1,2.4-5.2s4.1-1.7,7.4-1.8l3.8-0.1v-1c0-2.2-1.1-3.3-3.4-3.3c-1.8,0-3.8,0.5-6.2,1.6l-2-4
				c2.5-1.3,5.3-2,8.4-2c2.9,0,5.2,0.6,6.8,1.9c1.6,1.3,2.4,3.2,2.4,5.9v14.6H215.8z M214.1,46.2l-2.3,0.1c-1.7,0.1-3,0.4-3.9,0.9
				c-0.9,0.6-1.3,1.5-1.3,2.6c0,1.7,1,2.5,2.9,2.5c1.4,0,2.5-0.4,3.3-1.2c0.8-0.8,1.2-1.9,1.2-3.2V46.2z"/>
		</g>
	</g>
	<g>
		<g class="st0">
			<path class="st1" d="M48.2,12.7c0,3.3-1,6.2-3,8.5c-2,2.3-4.9,3.9-8.5,4.8v0.2c4.3,0.5,7.6,1.8,9.8,3.9c2.2,2.1,3.3,4.9,3.3,8.4
				c0,5.1-1.9,9.1-5.6,12c-3.7,2.9-9,4.3-16,4.3c-5.8,0-10.9-1-15.4-2.9v-9.6c2.1,1,4.3,1.9,6.8,2.6c2.5,0.7,4.9,1,7.4,1
				c3.7,0,6.5-0.6,8.3-1.9s2.7-3.3,2.7-6.1c0-2.5-1-4.3-3.1-5.3c-2-1-5.3-1.6-9.8-1.6H21v-8.7h4.1c4.1,0,7.2-0.5,9.1-1.6
				c1.9-1.1,2.9-2.9,2.9-5.6c0-4-2.5-6.1-7.6-6.1c-1.8,0-3.5,0.3-5.4,0.9c-1.8,0.6-3.8,1.6-6,3l-5.2-7.8C17.7,1.8,23.5,0,30.3,0
				c5.5,0,9.9,1.1,13.1,3.4C46.6,5.6,48.2,8.7,48.2,12.7z"/>
		</g>
	</g>
</g>
</svg>
