<?xml version="1.0" encoding="utf-8"?>
<!-- Generator: Adobe Illustrator 23.0.4, SVG Export Plug-In . SVG Version: 6.00 Build 0)  -->
<svg version="1.1" id="Layer_1" xmlns="http://www.w3.org/2000/svg" xmlns:xlink="http://www.w3.org/1999/xlink" x="0px" y="0px"
	 viewBox="0 0 207.2 64.1" style="enable-background:new 0 0 207.2 64.1;" xml:space="preserve">
<style type="text/css">
	.st0{enable-background:new    ;}
	.st1{fill:#4F5252;}
</style>
<g id="Layer_3">
	<g>
		<g class="st0">
			<path class="st1" d="M66.8,17.8l-0.4-1.7h-0.1c-0.6,0.7-1.2,1.2-1.7,1.5C64,17.9,63.3,18,62.4,18c-1.2,0-2.1-0.3-2.7-0.9
				c-0.7-0.6-1-1.5-1-2.6c0-2.4,1.9-3.6,5.7-3.7l2-0.1v-0.7c0-0.9-0.2-1.6-0.6-2c-0.4-0.4-1-0.7-1.9-0.7c-1,0-2.1,0.3-3.3,0.9
				L60,6.9c0.6-0.3,1.2-0.6,1.9-0.7C62.6,6,63.3,5.9,64,5.9c1.4,0,2.4,0.3,3.1,0.9s1,1.6,1,3v8H66.8z M62.8,16.6
				c1.1,0,2-0.3,2.6-0.9c0.6-0.6,0.9-1.5,0.9-2.5v-1.1l-1.8,0.1c-1.4,0-2.4,0.3-3.1,0.7c-0.6,0.4-0.9,1-0.9,1.8
				c0,0.6,0.2,1.1,0.6,1.5C61.5,16.4,62.1,16.6,62.8,16.6z"/>
			<path class="st1" d="M71.2,10.8c0-2.6,0.4-4.6,1.1-6c0.8-1.4,2-2.3,3.6-2.7c2-0.4,3.8-0.8,5.4-1.1l0.3,1.6
				c-2.5,0.4-4.2,0.7-5.3,1c-1,0.2-1.8,0.8-2.3,1.7c-0.5,0.9-0.8,2.1-0.9,3.6h0.1c0.4-0.6,1-1.1,1.7-1.4c0.7-0.3,1.4-0.5,2.2-0.5
				c1.4,0,2.6,0.5,3.4,1.4c0.8,0.9,1.2,2.2,1.2,3.9c0,1.8-0.5,3.3-1.4,4.3S78.1,18,76.4,18c-1.6,0-2.9-0.6-3.9-1.9
				C71.6,14.9,71.2,13.1,71.2,10.8z M76.6,16.5c2.2,0,3.3-1.4,3.3-4.2c0-2.6-1-4-3-4c-0.5,0-1.1,0.1-1.6,0.3s-1,0.5-1.4,0.9
				c-0.4,0.4-0.7,0.8-1,1.1c0,1.9,0.3,3.3,0.9,4.3C74.5,16.1,75.4,16.5,76.6,16.5z"/>
			<path class="st1" d="M94.9,11.9c0,1.9-0.5,3.4-1.4,4.5s-2.3,1.6-4,1.6c-1,0-2-0.2-2.8-0.7c-0.8-0.5-1.4-1.2-1.9-2.1
				c-0.4-0.9-0.7-2-0.7-3.2c0-1.9,0.5-3.4,1.4-4.5c1-1.1,2.3-1.6,4-1.6c1.6,0,2.9,0.5,3.9,1.6S94.9,10.1,94.9,11.9z M86,11.9
				c0,1.5,0.3,2.6,0.9,3.4c0.6,0.8,1.5,1.2,2.6,1.2s2-0.4,2.6-1.2s0.9-1.9,0.9-3.4c0-1.5-0.3-2.6-0.9-3.4s-1.5-1.2-2.7-1.2
				c-1.2,0-2,0.4-2.6,1.1C86.3,9.3,86,10.4,86,11.9z"/>
			<path class="st1" d="M99.8,6.1V11h6.6V6.1h1.8v11.7h-1.8v-5.3h-6.6v5.3h-1.8V6.1H99.8z"/>
			<path class="st1" d="M116.9,18c-1.7,0-3.1-0.5-4.1-1.6c-1-1.1-1.5-2.5-1.5-4.4c0-1.9,0.5-3.4,1.4-4.5c0.9-1.1,2.2-1.7,3.7-1.7
				c1.5,0,2.6,0.5,3.5,1.4c0.9,1,1.3,2.2,1.3,3.8v1.1h-8.1c0,1.4,0.4,2.4,1,3.1c0.7,0.7,1.6,1.1,2.8,1.1c1.3,0,2.5-0.3,3.7-0.8v1.6
				c-0.6,0.3-1.2,0.5-1.8,0.6C118.4,18,117.7,18,116.9,18z M116.4,7.4c-0.9,0-1.7,0.3-2.3,0.9c-0.6,0.6-0.9,1.5-1,2.5h6.1
				c0-1.1-0.2-2-0.7-2.6C118,7.7,117.3,7.4,116.4,7.4z"/>
			<path class="st1" d="M130.3,16.1l0.3-1l0.5-1.3l3.2-7.7h2.3v11.7H135V8.1l-0.2,0.6l-0.6,1.6l-3,7.4h-1.5l-3-7.4
				c-0.4-1-0.6-1.7-0.8-2.2v9.7h-1.6V6.1h2.2l3.1,7.4C129.8,14.3,130.1,15.2,130.3,16.1z"/>
			<path class="st1" d="M145.3,18c-1.7,0-3.1-0.5-4.1-1.6c-1-1.1-1.5-2.5-1.5-4.4c0-1.9,0.5-3.4,1.4-4.5c0.9-1.1,2.2-1.7,3.7-1.7
				c1.5,0,2.6,0.5,3.5,1.4c0.9,1,1.3,2.2,1.3,3.8v1.1h-8.1c0,1.4,0.4,2.4,1,3.1c0.7,0.7,1.6,1.1,2.8,1.1c1.3,0,2.5-0.3,3.7-0.8v1.6
				c-0.6,0.3-1.2,0.5-1.8,0.6C146.7,18,146.1,18,145.3,18z M144.8,7.4c-0.9,0-1.7,0.3-2.3,0.9c-0.6,0.6-0.9,1.5-1,2.5h6.1
				c0-1.1-0.2-2-0.7-2.6C146.4,7.7,145.7,7.4,144.8,7.4z"/>
			<path class="st1" d="M154.4,6.1V11h6.6V6.1h1.8v11.7h-1.8v-5.3h-6.6v5.3h-1.8V6.1H154.4z"/>
			<path class="st1" d="M174.4,7.6h-3.8v10.2h-1.8V7.6H165V6.1h9.3V7.6z"/>
			<path class="st1" d="M184.2,6.1V11h6.6V6.1h1.8v11.7h-1.8v-5.3h-6.6v5.3h-1.8V6.1H184.2z"/>
			<path class="st1" d="M203.5,17.8l-0.4-1.7H203c-0.6,0.7-1.2,1.2-1.7,1.5c-0.6,0.3-1.3,0.4-2.2,0.4c-1.2,0-2.1-0.3-2.7-0.9
				c-0.7-0.6-1-1.5-1-2.6c0-2.4,1.9-3.6,5.7-3.7l2-0.1v-0.7c0-0.9-0.2-1.6-0.6-2s-1-0.7-1.9-0.7c-1,0-2.1,0.3-3.3,0.9l-0.5-1.4
				c0.6-0.3,1.2-0.6,1.9-0.7c0.7-0.2,1.4-0.3,2.1-0.3c1.4,0,2.4,0.3,3.1,0.9s1,1.6,1,3v8H203.5z M199.5,16.6c1.1,0,2-0.3,2.6-0.9
				c0.6-0.6,0.9-1.5,0.9-2.5v-1.1l-1.8,0.1c-1.4,0-2.4,0.3-3.1,0.7s-0.9,1-0.9,1.8c0,0.6,0.2,1.1,0.6,1.5
				C198.2,16.4,198.8,16.6,199.5,16.6z"/>
		</g>
	</g>
	<g>
		<g class="st0">
			<path class="st1" d="M86.8,56.4h-5.6V39.1l-0.3,1.2c-0.7,2.8-1.3,4.9-1.9,6.3l-3.9,9.8h-4.3l-3.9-9.9c-0.6-1.4-1.2-3.5-1.8-6.1
				l-0.4-1.3v17.3h-5.6v-22h8.3l3.8,9.4c0.4,1,0.8,2.2,1.1,3.5c0.3,1.3,0.6,2.4,0.7,3.4c0.4-2,0.8-3.4,1-4.2
				c0.2-0.9,0.5-1.6,0.8-2.4c0.3-0.7,1.6-3.9,3.9-9.6h8.2V56.4z"/>
			<path class="st1" d="M103,56.8c-3.5,0-6.3-1-8.3-2.9c-2-2-3-4.7-3-8.3c0-3.7,0.9-6.5,2.8-8.5c1.8-2,4.4-3,7.6-3
				c3.1,0,5.5,0.9,7.2,2.7s2.6,4.2,2.6,7.3v2.9H97.8c0.1,1.7,0.6,3,1.5,4c0.9,1,2.3,1.4,4,1.4c1.3,0,2.6-0.1,3.8-0.4
				c1.2-0.3,2.4-0.7,3.7-1.3v4.6c-1,0.5-2.2,0.9-3.4,1.2C106.2,56.7,104.8,56.8,103,56.8z M102.2,38.3c-1.3,0-2.3,0.4-3,1.2
				s-1.1,1.9-1.2,3.4h8.4c0-1.5-0.4-2.6-1.2-3.4S103.5,38.3,102.2,38.3z"/>
			<path class="st1" d="M125.8,56.8c-6.8,0-10.3-3.8-10.3-11.3c0-3.7,0.9-6.6,2.8-8.6c1.9-2,4.5-3,8-3c2.5,0,4.8,0.5,6.8,1.5
				l-1.8,4.6c-0.9-0.4-1.8-0.7-2.6-0.9c-0.8-0.2-1.6-0.4-2.4-0.4c-3.1,0-4.7,2.2-4.7,6.6c0,4.3,1.6,6.4,4.7,6.4
				c1.2,0,2.2-0.2,3.2-0.5s2-0.8,2.9-1.4v5.1c-1,0.6-1.9,1-2.9,1.3C128.5,56.7,127.3,56.8,125.8,56.8z"/>
			<path class="st1" d="M140.9,56.4h-6.5l5.9-8.7c-1.4-0.6-2.5-1.4-3.2-2.6c-0.7-1.1-1.1-2.4-1.1-3.9c0-2.1,0.8-3.8,2.4-5
				c1.6-1.2,3.8-1.8,6.5-1.8h10.2v22h-6v-8.2h-3.3L140.9,56.4z M141.9,41.3c0,0.9,0.4,1.6,1.1,2.2s1.7,0.8,2.8,0.8h3.3v-5.5H145
				c-1,0-1.8,0.2-2.3,0.7C142.2,39.9,141.9,40.5,141.9,41.3z"/>
			<path class="st1" d="M182.2,52h3.2v12.3H180v-7.9h-18.6v-22h6v17.5h8.8V34.4h6V52z"/>
			<path class="st1" d="M203,56.4l-1.2-3h-0.2c-1,1.3-2,2.2-3.1,2.6s-2.5,0.7-4.2,0.7c-2.1,0-3.8-0.6-5-1.8
				c-1.2-1.2-1.8-2.9-1.8-5.1c0-2.3,0.8-4.1,2.4-5.2s4.1-1.7,7.4-1.8l3.8-0.1v-1c0-2.2-1.1-3.3-3.4-3.3c-1.8,0-3.8,0.5-6.2,1.6l-2-4
				c2.5-1.3,5.3-2,8.4-2c2.9,0,5.2,0.6,6.8,1.9c1.6,1.3,2.4,3.2,2.4,5.9v14.6H203z M201.3,46.2l-2.3,0.1c-1.7,0.1-3,0.4-3.9,0.9
				c-0.9,0.6-1.3,1.5-1.3,2.6c0,1.7,1,2.5,2.9,2.5c1.4,0,2.5-0.4,3.3-1.2c0.8-0.8,1.2-1.9,1.2-3.2V46.2z"/>
		</g>
	</g>
	<g>
		<g class="st0">
			<path class="st1" d="M35.4,12.7c0,3.3-1,6.2-3,8.5c-2,2.3-4.9,3.9-8.5,4.8v0.2c4.3,0.5,7.6,1.8,9.8,3.9c2.2,2.1,3.3,4.9,3.3,8.4
				c0,5.1-1.9,9.1-5.6,12c-3.7,2.9-9,4.3-16,4.3c-5.8,0-10.9-1-15.4-2.9v-9.6c2.1,1,4.3,1.9,6.8,2.6c2.5,0.7,4.9,1,7.4,1
				c3.7,0,6.5-0.6,8.3-1.9s2.7-3.3,2.7-6.1c0-2.5-1-4.3-3.1-5.3c-2-1-5.3-1.6-9.8-1.6H8.2v-8.7h4.1c4.1,0,7.2-0.5,9.1-1.6
				c1.9-1.1,2.9-2.9,2.9-5.6c0-4-2.5-6.1-7.6-6.1c-1.8,0-3.5,0.3-5.4,0.9c-1.8,0.6-3.8,1.6-6,3L0.1,5.3C4.9,1.8,10.8,0,17.5,0
				c5.5,0,9.9,1.1,13.1,3.4C33.8,5.6,35.4,8.7,35.4,12.7z"/>
		</g>
	</g>
</g>
</svg>
